<?xml version="1.0" encoding="utf-8"?>
<!-- Generator: Adobe Illustrator 17.1.0, SVG Export Plug-In . SVG Version: 6.00 Build 0)  -->
<!DOCTYPE svg PUBLIC "-//W3C//DTD SVG 1.1//EN" "http://www.w3.org/Graphics/SVG/1.1/DTD/svg11.dtd" [
	<!ENTITY ns_flows "http://ns.adobe.com/Flows/1.0/">
	<!ENTITY ns_extend "http://ns.adobe.com/Extensibility/1.0/">
	<!ENTITY ns_ai "http://ns.adobe.com/AdobeIllustrator/10.0/">
	<!ENTITY ns_graphs "http://ns.adobe.com/Graphs/1.0/">
]>
<svg version="1.1" id="Layer_1" xmlns:x="&ns_extend;" xmlns:i="&ns_ai;" xmlns:graph="&ns_graphs;"
	 xmlns="http://www.w3.org/2000/svg" xmlns:xlink="http://www.w3.org/1999/xlink" xmlns:a="http://ns.adobe.com/AdobeSVGViewerExtensions/3.0/"
	 x="0px" y="0px" viewBox="0 0 100 100" enable-background="new 0 0 100 100" xml:space="preserve">
<g>
	<path fill="#231F20" d="M70.4,44.2c-0.4-0.5-0.9-0.9-0.9-0.9l-0.1-0.1c0,0-0.6-0.5-1.2-0.6l-1.3-0.1c-1.2-0.1-2.4-0.2-3.5-0.3
		c-4.2-0.3-8.6-0.3-12.9-0.1c-2.8,0.1-5.1,0.8-7,2c-1,0.6-2.1,1.2-3.1,1.8l-1,0.5c-0.1,0.1-0.3,0.1-0.5,0.1
		c-3.1,0.2-5.7,0.7-8.1,1.4c-0.9,0.3-1.5,0.7-2,1.5l-0.1,0.1c-0.2,0.3-0.4,0.6-0.6,1c-0.8,1.8-1,3.3-0.4,4.7c0.1,0.4,0.4,1,1,1.4
		c0.6,0.4,1.6,1,2.9,1c0,0,0,0,0.1,0.1c0.7,1.9,2.5,3.2,4.6,3.2c2,0,3.8-1.2,4.5-3.2c0,0,0,0,0.1,0c5.7,0,11.3,0,17,0
		c0,0,0.1,0,0.1,0c0,0,0,0,0,0.1c0.7,2,2.5,3.2,4.6,3.2c0.1,0,0.2,0,0.3,0c2.1-0.1,3.9-1.7,4.4-3.8c0-0.1,0.1-0.2,0.2-0.2
		c0.5-0.2,1-0.4,1.5-0.7c0.6-0.3,1.2-0.5,1.8-0.8c0.5-0.2,0.7-0.5,0.7-1.1c0-0.7,0-1.4,0-2.1c0-1.1,0-2.1,0-3.2
		C71.5,49,71.4,44.9,70.4,44.2z M59.8,56.1c0-1.4,1.2-2.7,2.6-2.7l0-0.5l0,0v0.5c0.7,0,1.3,0.3,1.8,0.8c0.5,0.5,0.8,1.2,0.8,1.9
		c0,1.4-1.2,2.6-2.6,2.6C61,58.7,59.8,57.5,59.8,56.1z M36,53.3l0-0.5l0,0L36,53.3c0.7,0,1.4,0.3,1.9,0.8c0.5,0.5,0.8,1.2,0.8,1.9
		c0,1.5-1.2,2.7-2.6,2.7c-1.4,0-2.6-1.2-2.6-2.7C33.4,54.5,34.6,53.3,36,53.3z M62.4,43.9C62.4,43.9,62.4,43.9,62.4,43.9L62.4,43.9
		C62.4,43.9,62.4,43.9,62.4,43.9z M62.4,43.9C62.4,43.9,62.4,43.9,62.4,43.9L62.4,43.9C62.4,43.9,62.4,43.9,62.4,43.9z M61.7,45.8
		c0.3,0.5,0.3,0.6,0.4,0.6c0,0-0.2,0.1-0.7,0.1c-1.5,0.1-3.9,0.2-6.2,0.2c-1.9,0.1-3.8,0.1-5,0.2c-1.1,0.1-3.2-0.1-5.2-0.2
		c-0.6,0-1.1-0.1-1.6-0.1c0.5-0.3,1.1-0.6,1.6-0.9c1.1-0.6,2-1,2.9-1.1c2.3-0.3,4.2-0.4,5.9-0.5c2.4-0.1,4.8,0,7.4,0.1
		c0,0.2,0.1,0.4,0.2,0.5c0.1,0.1,0.1,0.3,0.2,0.4C61.6,45.5,61.7,45.7,61.7,45.8z M47,49c1.7,0,3.6,0.1,5.1,0.1c1,0,1.8,0,2.4-0.1
		c0.6,0,1.8-0.1,3.1-0.1c1.7,0,3.4-0.1,4.3-0.2c0.9-0.1,1.7-0.5,2.1-1.1c0.4-0.5,0.4-1.2,0.2-1.8c-0.2-0.5-0.4-0.9-0.6-1.3
		c1.3,0.1,2.5,0.2,3.6,0.3c0.6,0.1,0.8,0.2,1,0.3c0.2,0.1,0.4,0.3,0.5,0.6c0.1,0.3,0.4,1.7,0.5,2.8c0,0,0,3.2-0.1,5
		c-0.7,0.3-1.3,0.6-2,0.9l-0.1,0c-1.2-2.9-3.1-3.5-4.6-3.5c-0.1,0-0.2,0-0.3,0c-2.4,0.1-3.9,1.5-4.6,4.2H40.9
		c-0.5-2.6-2.2-4.2-4.5-4.3c-2.6-0.1-4.3,1.2-5.2,4.2c-0.1,0-0.2,0-0.3,0c-0.8-0.1-1.2-0.5-1.3-1.2c-0.2-1.3,0.2-2.5,1.2-3.7
		c0,0,0.2-0.1,0.4-0.1c2.2-0.7,4.7-1.1,7.6-1.3c0.2,0.1,0.4,0.1,0.7,0.2l0.1,0C41.5,48.9,44.3,48.9,47,49z"/>
	<path fill="#231F20" d="M47.8,41.9l0.5,0c0.2,0,0.5-0.1,1-0.1c0.2,0,0.4-0.2,0.6-0.3c0.2-0.2,0.5-0.4,0.9-0.4l0.6,0
		c1,0,2.2,0,3.5,0c1.5,0,3.1-0.1,4.7-0.1c2.2,0,3.8,0.1,4.9,0.2c0.5,0.1,0.7,0.2,0.8,0.4c0.1,0.1,0.2,0.3,0.4,0.4l0.1,0.1l1.6,0
		l0.1-0.4c0,0,0.2-1-0.4-1.8c-0.4-0.5-1-0.8-1.8-0.9c-1.2-0.1-3.1-0.2-5.9-0.2c-2.4,0-5.3,0-8.9,0.1c-0.8,0-1.6,0.8-2.3,1.4
		l-0.4,0.4v0.7V41.9z"/>
</g>
</svg>
