<?xml version="1.0" encoding="utf-8"?>
<!-- Generator: Adobe Illustrator 17.1.0, SVG Export Plug-In . SVG Version: 6.00 Build 0)  -->
<!DOCTYPE svg PUBLIC "-//W3C//DTD SVG 1.1//EN" "http://www.w3.org/Graphics/SVG/1.1/DTD/svg11.dtd" [
	<!ENTITY ns_flows "http://ns.adobe.com/Flows/1.0/">
	<!ENTITY ns_extend "http://ns.adobe.com/Extensibility/1.0/">
	<!ENTITY ns_ai "http://ns.adobe.com/AdobeIllustrator/10.0/">
	<!ENTITY ns_graphs "http://ns.adobe.com/Graphs/1.0/">
]>
<svg version="1.1" id="Layer_1" xmlns:x="&ns_extend;" xmlns:i="&ns_ai;" xmlns:graph="&ns_graphs;"
	 xmlns="http://www.w3.org/2000/svg" xmlns:xlink="http://www.w3.org/1999/xlink" xmlns:a="http://ns.adobe.com/AdobeSVGViewerExtensions/3.0/"
	 x="0px" y="0px" viewBox="0 0 100 100" enable-background="new 0 0 100 100" xml:space="preserve">
<g>
	<g>
		<path fill="#231F20" d="M62.4,55.7c-1.3-1.2-2.5-2.3-2.5-4.4c0-8.9-0.5-15.2-6.8-16.8c0.4-0.6,0.6-1.3,0.6-2.1
			c0-2.3-1.9-4.3-4.3-4.3c-2.4,0-4.3,1.9-4.3,4.3c0,0.8,0.2,1.5,0.6,2.1c-6.3,1.6-6.8,7.9-6.8,16.8c0,2.1-1.2,3.2-2.5,4.4
			c-1.2,1.1-2.5,2.2-2.5,4.1c0,4.7,8.2,5.3,15.4,5.3v0c0,0,0,0,0,0c0,0,0,0,0,0v0c8.1,0,15.5-0.6,15.5-5.3
			C64.8,57.9,63.5,56.7,62.4,55.7z M49.4,30.7c0.9,0,1.7,0.8,1.7,1.7c0,0.9-0.8,1.7-1.7,1.7c-0.9,0-1.7-0.8-1.7-1.7
			C47.7,31.5,48.4,30.7,49.4,30.7z M49.3,62.5c-11.9,0-12.8-2.1-12.8-2.7c0-0.7,0.6-1.3,1.6-2.2c1.4-1.3,3.3-3,3.3-6.3
			c0-11.4,1-14.7,7.9-14.7s7.9,3.3,7.9,14.7c0,3.2,1.9,5,3.3,6.3c1,0.9,1.6,1.5,1.6,2.2C62.3,61.1,60,62.5,49.3,62.5z M54.1,66.2
			c-0.6-0.3-1.4,0-1.7,0.6c-0.5,1.2-1.7,1.9-3,1.9c-1.3,0-2.4-0.8-3-1.9c-0.3-0.6-1.1-0.9-1.7-0.6C44,66.6,43.7,67.3,44,68
			c1,2.1,3.1,3.4,5.3,3.4c2.3,0,4.4-1.3,5.4-3.4C55,67.3,54.8,66.5,54.1,66.2z"/>
	</g>
</g>
</svg>
