<?xml version="1.0" encoding="utf-8"?>
<!-- Generator: Adobe Illustrator 17.1.0, SVG Export Plug-In . SVG Version: 6.00 Build 0)  -->
<!DOCTYPE svg PUBLIC "-//W3C//DTD SVG 1.1//EN" "http://www.w3.org/Graphics/SVG/1.1/DTD/svg11.dtd" [
	<!ENTITY ns_flows "http://ns.adobe.com/Flows/1.0/">
	<!ENTITY ns_extend "http://ns.adobe.com/Extensibility/1.0/">
	<!ENTITY ns_ai "http://ns.adobe.com/AdobeIllustrator/10.0/">
	<!ENTITY ns_graphs "http://ns.adobe.com/Graphs/1.0/">
]>
<svg version="1.1" id="Layer_1" xmlns:x="&ns_extend;" xmlns:i="&ns_ai;" xmlns:graph="&ns_graphs;"
	 xmlns="http://www.w3.org/2000/svg" xmlns:xlink="http://www.w3.org/1999/xlink" xmlns:a="http://ns.adobe.com/AdobeSVGViewerExtensions/3.0/"
	 x="0px" y="0px" viewBox="0 0 100 100" enable-background="new 0 0 100 100" xml:space="preserve">
<g>
	<g>
		<path fill="#231F20" d="M71,37.6c0-2.4-1.6-4-3.9-4c-11.8,0-23.5,0-35.3,0c-0.3,0-0.7,0-1,0.1c-1.9,0.4-3,1.9-3,3.9
			c0,8.1,0,16.3,0,24.4c0,0.3,0,0.6,0.1,0.9c0.4,1.9,1.9,3.1,3.8,3.1c5.9,0,11.8,0,17.7,0c5.9,0,11.8,0,17.7,0c2.4,0,3.9-1.6,3.9-4
			C71,53.8,71,45.7,71,37.6z M69.1,61.9c0,1.4-0.7,2.2-2.1,2.2c-11.7,0-23.5,0-35.2,0c-1.4,0-2.1-0.8-2.1-2.1c0-8.1,0-16.2,0-24.3
			c0-1.5,0.7-2.2,2.2-2.2c5.9,0,11.7,0,17.6,0c5.9,0,11.7,0,17.6,0c1.4,0,2.1,0.7,2.1,2.2C69.1,45.7,69.1,53.8,69.1,61.9z
			 M66.8,58.5c-2.2-2.2-4.3-4.4-6.5-6.6c-0.4-0.4-1-0.3-1.4,0.1c-1.3,1.3-2.6,2.6-4,4.1c-0.1-0.1-0.2-0.3-0.3-0.4c-3-3-5.9-6-8.9-9
			c-0.9-0.9-1.3-0.9-2.2,0c-3.8,3.9-7.7,7.8-11.5,11.7c-0.1,0.1-0.2,0.2-0.3,0.4c-0.3,0.4-0.2,0.9,0.1,1.2c0.3,0.3,0.8,0.4,1.2,0.1
			c0.1-0.1,0.2-0.2,0.4-0.3c3.7-3.7,7.3-7.4,11-11.2c0.1-0.1,0.2-0.2,0.4-0.4c0.1,0.2,0.2,0.3,0.3,0.4c4.3,4.3,8.5,8.7,12.8,13
			c0.1,0.1,0.3,0.3,0.4,0.4c0.4,0.2,0.8,0.2,1.1-0.1c0.3-0.3,0.4-0.8,0.1-1.1c-0.1-0.1-0.2-0.3-0.3-0.4c-1-1-1.9-2-2.9-2.9
			c1.1-1.2,2.3-2.3,3.4-3.4c0.1,0.1,0.2,0.2,0.3,0.3c1.8,1.8,3.6,3.7,5.4,5.5c0.1,0.1,0.2,0.2,0.3,0.3c0.4,0.3,0.9,0.3,1.2-0.1
			c0.3-0.3,0.4-0.8,0.1-1.2C67,58.7,66.9,58.6,66.8,58.5z M54,45c2.1,0,3.8-1.7,3.8-3.8c0-2.1-1.7-3.9-3.8-3.9
			c-2.1,0-3.7,1.7-3.8,3.8C50.3,43.3,52,45,54,45z M54.1,39.3c1,0,1.9,0.8,1.9,1.9c0,1-0.8,1.9-1.9,1.9c-1,0-1.9-0.8-1.9-1.9
			C52.2,40.1,53,39.3,54.1,39.3z"/>
	</g>
</g>
</svg>
