<?xml version="1.0" encoding="utf-8"?>
<!-- Generator: Adobe Illustrator 17.1.0, SVG Export Plug-In . SVG Version: 6.00 Build 0)  -->
<!DOCTYPE svg PUBLIC "-//W3C//DTD SVG 1.1//EN" "http://www.w3.org/Graphics/SVG/1.1/DTD/svg11.dtd" [
	<!ENTITY ns_flows "http://ns.adobe.com/Flows/1.0/">
	<!ENTITY ns_extend "http://ns.adobe.com/Extensibility/1.0/">
	<!ENTITY ns_ai "http://ns.adobe.com/AdobeIllustrator/10.0/">
	<!ENTITY ns_graphs "http://ns.adobe.com/Graphs/1.0/">
]>
<svg version="1.1" id="Layer_1" xmlns:x="&ns_extend;" xmlns:i="&ns_ai;" xmlns:graph="&ns_graphs;"
	 xmlns="http://www.w3.org/2000/svg" xmlns:xlink="http://www.w3.org/1999/xlink" xmlns:a="http://ns.adobe.com/AdobeSVGViewerExtensions/3.0/"
	 x="0px" y="0px" viewBox="0 0 100 100" enable-background="new 0 0 100 100" xml:space="preserve">
<g>
	<g>
		<path fill="#231F20" d="M63.9,66.1h-3.7V42.9h2.3c0.4,0,0.8-0.4,0.8-0.8c0-7.7-6.3-13.9-14.1-13.9s-14.1,6.2-14.1,13.9
			c0,0.4,0.4,0.8,0.8,0.8h2.5v23.2h-3.7c-1.3,0-2.4,1.1-2.4,2.4V69c0,1.3,1.1,2.4,2.4,2.4h29c1.3,0,2.4-1.1,2.4-2.4v-0.4
			C66.3,67.2,65.2,66.1,63.9,66.1z M36.9,41.3c0.4-6.4,5.8-11.5,12.4-11.5c6.6,0,12,5.1,12.4,11.5h-1.6c-0.6-5.4-5.2-9.6-10.8-9.6
			c-5.6,0-10.2,4.2-10.8,9.6H36.9z M58.6,42.6v23.5H40.2V42.4c0-5,4.1-9.1,9.2-9.1c5.1,0,9.2,4.1,9.2,9.1
			C58.6,42.4,58.6,42.5,58.6,42.6z M64.7,69c0,0.4-0.4,0.8-0.8,0.8h-29c-0.4,0-0.8-0.4-0.8-0.8v-0.4c0-0.4,0.4-0.8,0.8-0.8h29
			c0.4,0,0.8,0.4,0.8,0.8V69z M49.3,38.3c-2.5,0-4.5,2-4.5,4.5c0,0,0,0,0,0s0,0,0,0v7.3c0,0.4,0.4,0.8,0.8,0.8H53
			c0.4,0,0.8-0.4,0.8-0.8v-7.3c0,0,0,0,0,0s0,0,0,0C53.8,40.3,51.7,38.3,49.3,38.3z M49.3,39.9c1.3,0,2.4,0.9,2.8,2.1h-5.5
			C46.9,40.8,48,39.9,49.3,39.9z M48.5,49.3h-2.1v-5.7h2.1V49.3z M52.1,49.3h-2.1v-5.7h2.1V49.3z M54.2,54c0,0.7,0.6,1.3,1.3,1.3
			c0.7,0,1.3-0.6,1.3-1.3s-0.6-1.3-1.3-1.3C54.8,52.7,54.2,53.2,54.2,54z M55.8,54c0,0.2-0.1,0.3-0.3,0.3c-0.2,0-0.3-0.1-0.3-0.3
			c0-0.2,0.1-0.3,0.3-0.3C55.7,53.6,55.8,53.8,55.8,54z"/>
	</g>
</g>
</svg>
