<?xml version="1.0" encoding="utf-8"?>
<!-- Generator: Adobe Illustrator 17.1.0, SVG Export Plug-In . SVG Version: 6.00 Build 0)  -->
<!DOCTYPE svg PUBLIC "-//W3C//DTD SVG 1.1//EN" "http://www.w3.org/Graphics/SVG/1.1/DTD/svg11.dtd" [
	<!ENTITY ns_flows "http://ns.adobe.com/Flows/1.0/">
	<!ENTITY ns_extend "http://ns.adobe.com/Extensibility/1.0/">
	<!ENTITY ns_ai "http://ns.adobe.com/AdobeIllustrator/10.0/">
	<!ENTITY ns_graphs "http://ns.adobe.com/Graphs/1.0/">
]>
<svg version="1.1" id="Layer_1" xmlns:x="&ns_extend;" xmlns:i="&ns_ai;" xmlns:graph="&ns_graphs;"
	 xmlns="http://www.w3.org/2000/svg" xmlns:xlink="http://www.w3.org/1999/xlink" xmlns:a="http://ns.adobe.com/AdobeSVGViewerExtensions/3.0/"
	 x="0px" y="0px" viewBox="0 0 100 100" enable-background="new 0 0 100 100" xml:space="preserve">
<g>
	<g>
		<path fill="#231F20" d="M61.7,47.7h-2.7v-9.9c0-5.3-4.3-9.6-9.7-9.6c-5.3,0-9.7,4.3-9.7,9.6v9.9H37c-2.9,0-5.3,2.4-5.3,5.3v13.2
			c0,2.9,2.4,5.3,5.3,5.3h24.7c2.9,0,5.3-2.4,5.3-5.3V52.9C67,50,64.6,47.7,61.7,47.7z M42,37.8c0-4,3.3-7.3,7.3-7.3
			s7.3,3.3,7.3,7.3v9.9H42V37.8z M64.7,66.1c0,1.6-1.3,2.9-2.9,2.9H37c-1.6,0-2.9-1.3-2.9-2.9V52.9c0-1.6,1.3-2.9,2.9-2.9h24.7
			c1.6,0,2.9,1.3,2.9,2.9V66.1z M49.4,55.8c-1.3,0-2.3,1-2.3,2.3c0,0.8,0.5,1.6,1.1,2v2.6c0,0.6,0.5,1.2,1.2,1.2
			c0.7,0,1.2-0.5,1.2-1.2v-2.6c0.7-0.4,1.1-1.1,1.1-2C51.7,56.9,50.7,55.8,49.4,55.8z"/>
	</g>
</g>
</svg>
