<?xml version="1.0" encoding="utf-8"?>
<!-- Generator: Adobe Illustrator 17.1.0, SVG Export Plug-In . SVG Version: 6.00 Build 0)  -->
<!DOCTYPE svg PUBLIC "-//W3C//DTD SVG 1.1//EN" "http://www.w3.org/Graphics/SVG/1.1/DTD/svg11.dtd" [
	<!ENTITY ns_flows "http://ns.adobe.com/Flows/1.0/">
	<!ENTITY ns_extend "http://ns.adobe.com/Extensibility/1.0/">
	<!ENTITY ns_ai "http://ns.adobe.com/AdobeIllustrator/10.0/">
	<!ENTITY ns_graphs "http://ns.adobe.com/Graphs/1.0/">
]>
<svg version="1.1" id="Layer_1" xmlns:x="&ns_extend;" xmlns:i="&ns_ai;" xmlns:graph="&ns_graphs;"
	 xmlns="http://www.w3.org/2000/svg" xmlns:xlink="http://www.w3.org/1999/xlink" xmlns:a="http://ns.adobe.com/AdobeSVGViewerExtensions/3.0/"
	 x="0px" y="0px" viewBox="0 0 100 100" enable-background="new 0 0 100 100" xml:space="preserve">
<path fill="#231F20" d="M59,65.2l-9.6,0l-6.4,0c-3.4,0-6.8,0-10.3,0c-0.5,0-0.9,0-1.4-0.1c-2.2-0.5-3.5-1.9-3.6-4.2
	c0-0.4,0-0.8,0-1.3l0-0.5l0-3.3c0-4.4,0-8.8,0-13.2c0-0.7,0.1-1.3,0.2-1.9c0.5-1.8,2.3-2.9,4.4-2.9c2.2,0,4.5,0,6.7,0
	c0.3-0.5,0.6-0.9,0.9-1.4c0.2-0.3,0.4-0.6,0.6-1c0.5-0.9,1.4-1.3,2.4-1.3l6.7,0l6.2,0c1.1,0,1.9,0.5,2.4,1.3
	c0.2,0.3,0.4,0.6,0.6,0.9c0.3,0.5,0.6,0.9,0.9,1.4c2.3,0,4.4,0,6.6,0c0.6,0,1.2,0.1,1.8,0.3c1.7,0.5,2.7,1.8,2.9,3.5
	c0,0.3,0.1,0.6,0.1,0.9c0,5.9,0,11.8,0,17.8c0,0.4,0,0.9-0.1,1.4c-0.5,2-2.2,3.3-4.7,3.3L59,65.2z M49.3,63.7l9.6,0l7.2,0
	c1.7,0,2.8-0.8,3.1-2.1c0.1-0.4,0.1-0.8,0.1-1.1c0-5.9,0-11.8,0-17.8c0-0.3,0-0.5,0-0.8c-0.1-1.2-0.7-1.9-1.8-2.2
	c-0.4-0.1-0.9-0.2-1.3-0.2c-2.2,0-4.4,0-6.6,0c-0.6,0-1-0.2-1.3-0.7c-0.3-0.5-0.6-1-0.9-1.5c-0.2-0.3-0.4-0.6-0.6-0.9
	c-0.3-0.4-0.6-0.6-1.1-0.6l-6.2,0l-6.7,0c-0.5,0-0.8,0.2-1.1,0.6c-0.2,0.3-0.4,0.6-0.6,1c-0.3,0.5-0.6,0.9-0.9,1.4
	c-0.3,0.5-0.7,0.7-1.3,0.7c-2.3,0-4.5,0-6.7,0c-1.4,0-2.6,0.7-2.9,1.8c-0.1,0.4-0.2,0.9-0.2,1.4c0,4.4,0,8.8,0,13.2l0,3.3l0,0.5
	c0,0.4,0,0.8,0,1.2c0.1,1.5,0.8,2.4,2.3,2.7c0.3,0.1,0.6,0.1,1,0.1c3.4,0,6.8,0,10.3,0L49.3,63.7z M49.4,59.7
	c-2.5,0-4.8-0.9-6.6-2.7c-1.8-1.7-2.7-4-2.7-6.4c0-5,4.2-9,9.3-9h0c5.1,0,9.3,4,9.3,9c0,2.4-1,4.7-2.7,6.4S51.9,59.7,49.4,59.7z
	 M49.4,42.4l0,0.8c-4.3,0-7.7,3.4-7.7,7.5c0,2,0.8,3.9,2.3,5.3c1.5,1.4,3.4,2.2,5.5,2.2c2.1,0,4-0.8,5.5-2.2
	c1.5-1.4,2.3-3.3,2.3-5.3c0-4.1-3.5-7.5-7.7-7.5V42.4z"/>
</svg>
