<?xml version="1.0" encoding="utf-8"?>
<!-- Generator: Adobe Illustrator 17.1.0, SVG Export Plug-In . SVG Version: 6.00 Build 0)  -->
<!DOCTYPE svg PUBLIC "-//W3C//DTD SVG 1.1//EN" "http://www.w3.org/Graphics/SVG/1.1/DTD/svg11.dtd" [
	<!ENTITY ns_flows "http://ns.adobe.com/Flows/1.0/">
	<!ENTITY ns_extend "http://ns.adobe.com/Extensibility/1.0/">
	<!ENTITY ns_ai "http://ns.adobe.com/AdobeIllustrator/10.0/">
	<!ENTITY ns_graphs "http://ns.adobe.com/Graphs/1.0/">
]>
<svg version="1.1" id="Layer_1" xmlns:x="&ns_extend;" xmlns:i="&ns_ai;" xmlns:graph="&ns_graphs;"
	 xmlns="http://www.w3.org/2000/svg" xmlns:xlink="http://www.w3.org/1999/xlink" xmlns:a="http://ns.adobe.com/AdobeSVGViewerExtensions/3.0/"
	 x="0px" y="0px" viewBox="0 0 100 100" enable-background="new 0 0 100 100" xml:space="preserve">
<path fill="#231F20" d="M61.5,71.4C61.5,71.4,61.5,71.4,61.5,71.4c-0.3,0-0.4,0-0.6,0c-0.5,0-0.9,0-1.4-0.1
	c-0.7-0.1-1.4-0.3-2.2-0.5c-2.2-0.6-4.1-1.8-5.9-2.9C50,67,48.6,66,47.3,65.1c-1.9-1.4-3.8-3-5.9-5.1c-2.1-2-4-4.1-5.6-6.2
	c-2-2.6-3.7-5.1-5-7.6c-0.6-1.1-1.2-2.4-1.8-3.7c-0.3-0.6-0.4-1.2-0.6-1.8l-0.1-0.3c-0.4-1.2-0.5-2.5-0.4-3.7
	c0.1-2.7,1.3-4.9,3.5-6.5c0.8-0.6,1.6-1.1,2.6-1.5c0.5-0.2,1-0.3,1.5-0.4c0.4-0.1,0.8-0.1,1.1-0.1c1.1,0,2.1,0.4,3.1,1.1
	c0.7,0.5,1.2,1.1,1.7,1.8l0.3,0.3c1.5,1.7,2.6,3.4,3.5,5.1c0.4,0.8,0.6,1.5,0.8,2.3c0.2,1.1,0.1,2.2-0.4,3.5c-0.5,1.1-1.1,2.1-1.7,3
	c-0.2,0.3-0.2,0.6,0.1,0.9c0.3,0.3,0.6,0.7,0.9,1c0.8,1,1.7,2,2.6,2.9c1,1.1,2.2,2.1,3.2,3.1c0.5,0.4,0.9,0.9,1.4,1.3
	c0.3,0.3,0.6,0.6,0.9,0.8c0.3,0.3,0.4,0.3,0.5,0.3c0.1,0,0.3-0.1,0.4-0.2c0.3-0.2,0.7-0.4,1-0.6c0.5-0.3,1-0.6,1.5-0.9
	c0.9-0.5,1.9-0.7,2.9-0.6c0.6,0.1,1.3,0.2,2,0.5c1.1,0.4,1.9,0.7,2.7,1.1c2.4,1.2,4.4,2.8,6.1,4.8c0.6,0.7,1,1.5,1.1,2.4
	c0.1,0.6,0.1,1.2,0,1.9c-0.3,1.4-1.1,2.4-1.9,3.5c-0.8,1-1.5,1.7-2.3,2.4c-0.7,0.6-1.6,1.1-2.6,1.3C63.3,71.3,62.5,71.4,61.5,71.4z
	 M36.4,29.8c-0.2,0-0.5,0-0.7,0.1c-0.4,0.1-0.8,0.2-1.2,0.4c-0.8,0.3-1.6,0.8-2.3,1.3c-1.8,1.3-2.7,3-2.8,5.2
	c-0.1,1.1,0.1,2.1,0.4,3.2l0.1,0.3c0.2,0.6,0.3,1.1,0.5,1.6c0.6,1.3,1.2,2.5,1.8,3.6c1.3,2.5,2.9,4.9,4.9,7.4c1.6,2,3.5,4.1,5.5,6
	c2,2,3.9,3.6,5.8,4.9c1.3,0.9,2.6,1.9,4,2.7c1.7,1.1,3.5,2.1,5.4,2.7c0.7,0.2,1.4,0.4,2,0.5c0.4,0.1,0.8,0.1,1.2,0.1
	c0.2,0,0.4,0,0.6,0c0.8,0,1.5-0.1,2.1-0.2c0.8-0.2,1.4-0.5,2-1c0.7-0.6,1.3-1.2,2.1-2.1c0.7-0.9,1.4-1.7,1.6-2.8
	c0.1-0.4,0.1-0.8,0-1.2c-0.1-0.6-0.4-1.1-0.8-1.6c-1.5-1.9-3.4-3.3-5.6-4.4c-0.7-0.4-1.5-0.7-2.5-1.1c-0.6-0.2-1.1-0.3-1.6-0.4
	c-0.7-0.1-1.3,0-1.9,0.4c-0.5,0.3-1,0.6-1.5,0.9c-0.3,0.2-0.7,0.4-1,0.6c-1,0.6-2,0.5-2.9-0.3c-0.3-0.3-0.6-0.6-0.9-0.8
	c-0.5-0.4-0.9-0.9-1.4-1.3c-1.1-1-2.2-2.1-3.3-3.2c-0.9-0.9-1.8-2-2.7-2.9c-0.3-0.3-0.6-0.7-0.9-1c-0.8-0.9-0.9-2-0.2-3
	c0.5-0.8,1.2-1.7,1.6-2.6c0.4-0.9,0.5-1.7,0.3-2.5c-0.1-0.6-0.3-1.2-0.6-1.8c-0.8-1.6-1.8-3.2-3.2-4.8L40,32
	c-0.5-0.6-0.9-1.1-1.5-1.5C37.8,30.1,37.2,29.8,36.4,29.8z"/>
</svg>
