<?xml version="1.0" encoding="utf-8"?>
<!-- Generator: Adobe Illustrator 17.1.0, SVG Export Plug-In . SVG Version: 6.00 Build 0)  -->
<!DOCTYPE svg PUBLIC "-//W3C//DTD SVG 1.1//EN" "http://www.w3.org/Graphics/SVG/1.1/DTD/svg11.dtd" [
	<!ENTITY ns_flows "http://ns.adobe.com/Flows/1.0/">
	<!ENTITY ns_extend "http://ns.adobe.com/Extensibility/1.0/">
	<!ENTITY ns_ai "http://ns.adobe.com/AdobeIllustrator/10.0/">
	<!ENTITY ns_graphs "http://ns.adobe.com/Graphs/1.0/">
]>
<svg version="1.1" id="Layer_1" xmlns:x="&ns_extend;" xmlns:i="&ns_ai;" xmlns:graph="&ns_graphs;"
	 xmlns="http://www.w3.org/2000/svg" xmlns:xlink="http://www.w3.org/1999/xlink" xmlns:a="http://ns.adobe.com/AdobeSVGViewerExtensions/3.0/"
	 x="0px" y="0px" viewBox="0 0 100 100" enable-background="new 0 0 100 100" xml:space="preserve">
<path fill="#231F20" d="M49.4,30.5c0.5,0,1,0.2,1.4,0.5l17.1,15.4c0.9,0.8,1,2.1,0.2,3c-0.4,0.5-1,0.7-1.6,0.7c0,0,0,0,0,0h-3.1
	v14.5c0,2.3-2.1,4.5-4,4.5h-5.7h-3H40.7h-1.8c-1.8,0-3.5-2.2-3.5-4.5V50.1h-3.2c-0.6,0-1.1-0.3-1.5-0.7c-0.8-0.9-0.7-2.2,0.2-3
	L48,31C48.4,30.7,48.9,30.5,49.4,30.5 M49.4,28.2c-1.1,0-2.1,0.4-3,1.1l0,0l0,0L29.3,44.7c-1.8,1.6-2,4.4-0.4,6.2
	c0.8,0.9,1.9,1.4,3.1,1.5l0.1,0h0.1H33v12.1c0,3.6,2.7,6.8,5.9,6.8h1.8h10.1h3h5.7c3.2,0,6.3-3.3,6.3-6.8V52.4h0.4l0,0l0.3,0
	c1.3,0,2.5-0.6,3.4-1.5c0.8-0.9,1.2-2,1.1-3.2c-0.1-1.2-0.6-2.2-1.5-3L52.4,29.3l0,0l0,0C51.5,28.6,50.5,28.2,49.4,28.2L49.4,28.2z"
	/>
</svg>
