<?xml version="1.0" encoding="utf-8"?>
<!-- Generator: Adobe Illustrator 17.1.0, SVG Export Plug-In . SVG Version: 6.00 Build 0)  -->
<!DOCTYPE svg PUBLIC "-//W3C//DTD SVG 1.1//EN" "http://www.w3.org/Graphics/SVG/1.1/DTD/svg11.dtd" [
	<!ENTITY ns_flows "http://ns.adobe.com/Flows/1.0/">
	<!ENTITY ns_extend "http://ns.adobe.com/Extensibility/1.0/">
	<!ENTITY ns_ai "http://ns.adobe.com/AdobeIllustrator/10.0/">
	<!ENTITY ns_graphs "http://ns.adobe.com/Graphs/1.0/">
]>
<svg version="1.1" id="Layer_1" xmlns:x="&ns_extend;" xmlns:i="&ns_ai;" xmlns:graph="&ns_graphs;"
	 xmlns="http://www.w3.org/2000/svg" xmlns:xlink="http://www.w3.org/1999/xlink" xmlns:a="http://ns.adobe.com/AdobeSVGViewerExtensions/3.0/"
	 x="0px" y="0px" viewBox="0 0 100 100" enable-background="new 0 0 100 100" xml:space="preserve">
<g>
	<g>
		<path fill="#231F20" d="M46.1,68.2c0.7,0,1.2-0.5,1.2-1.2c0-0.7-0.5-1.2-1.2-1.2c-0.7,0-1.2,0.5-1.2,1.2
			C44.9,67.6,45.4,68.2,46.1,68.2z M52.7,68.2c0.7,0,1.2-0.5,1.2-1.2c0-0.7-0.5-1.2-1.2-1.2c-0.7,0-1.2,0.5-1.2,1.2
			C51.5,67.6,52,68.2,52.7,68.2z M57.9,28.2H40.8c-2.8,0-5.1,2.3-5.1,5.2v32.9c0,2.8,2.3,5.2,5.1,5.2h17.1c2.8,0,5.1-2.3,5.1-5.2
			V33.3C63.1,30.5,60.8,28.2,57.9,28.2z M61.4,66.2c0,1.9-1.6,3.5-3.5,3.5H40.8c-1.9,0-3.5-1.6-3.5-3.5v-2h24.1V66.2z M61.4,62.5
			H37.3V37.2h24.1V62.5z M61.4,35.6H37.3v-2.2c0-1.9,1.6-3.5,3.5-3.5h17.1c1.9,0,3.5,1.6,3.5,3.5V35.6z M52.9,31.7h-7.1
			c-0.5,0-0.8,0.4-0.8,0.8c0,0.5,0.4,0.8,0.8,0.8h7.1c0.5,0,0.8-0.4,0.8-0.8C53.7,32.1,53.4,31.7,52.9,31.7z"/>
	</g>
</g>
</svg>
