<?xml version="1.0" encoding="utf-8"?>
<!-- Generator: Adobe Illustrator 17.1.0, SVG Export Plug-In . SVG Version: 6.00 Build 0)  -->
<!DOCTYPE svg PUBLIC "-//W3C//DTD SVG 1.1//EN" "http://www.w3.org/Graphics/SVG/1.1/DTD/svg11.dtd" [
	<!ENTITY ns_flows "http://ns.adobe.com/Flows/1.0/">
	<!ENTITY ns_extend "http://ns.adobe.com/Extensibility/1.0/">
	<!ENTITY ns_ai "http://ns.adobe.com/AdobeIllustrator/10.0/">
	<!ENTITY ns_graphs "http://ns.adobe.com/Graphs/1.0/">
]>
<svg version="1.1" id="Layer_1" xmlns:x="&ns_extend;" xmlns:i="&ns_ai;" xmlns:graph="&ns_graphs;"
	 xmlns="http://www.w3.org/2000/svg" xmlns:xlink="http://www.w3.org/1999/xlink" xmlns:a="http://ns.adobe.com/AdobeSVGViewerExtensions/3.0/"
	 x="0px" y="0px" viewBox="0 0 100 100" enable-background="new 0 0 100 100" xml:space="preserve">
<path fill="#231F20" d="M66,33.2H32.8c-2.8,0-5.7,3-5.7,5.7v21.6c0,2.8,3,5.7,5.7,5.7H66c2.8,0,5.7-3,5.7-5.7V39
	C71.7,36.2,68.7,33.2,66,33.2z M32.8,35.5H66c1.9,0,3.4,1.5,3.4,3.4v4.7l-19.9,7.8l-20.1-7.8V39C29.4,37.1,30.9,35.5,32.8,35.5z
	 M66,64H32.8c-1.9,0-3.4-1.5-3.4-3.4V46.1l19.9,7.7c0.1,0,0.2,0.1,0.3,0.1c0.1,0,0.2,0,0.3-0.1l19.6-7.7v14.5
	C69.4,62.5,67.8,64,66,64z"/>
</svg>
