<?xml version="1.0" encoding="utf-8"?>
<!-- Generator: Adobe Illustrator 17.1.0, SVG Export Plug-In . SVG Version: 6.00 Build 0)  -->
<!DOCTYPE svg PUBLIC "-//W3C//DTD SVG 1.1//EN" "http://www.w3.org/Graphics/SVG/1.1/DTD/svg11.dtd" [
	<!ENTITY ns_flows "http://ns.adobe.com/Flows/1.0/">
	<!ENTITY ns_extend "http://ns.adobe.com/Extensibility/1.0/">
	<!ENTITY ns_ai "http://ns.adobe.com/AdobeIllustrator/10.0/">
	<!ENTITY ns_graphs "http://ns.adobe.com/Graphs/1.0/">
]>
<svg version="1.1" id="Layer_1" xmlns:x="&ns_extend;" xmlns:i="&ns_ai;" xmlns:graph="&ns_graphs;"
	 xmlns="http://www.w3.org/2000/svg" xmlns:xlink="http://www.w3.org/1999/xlink" xmlns:a="http://ns.adobe.com/AdobeSVGViewerExtensions/3.0/"
	 x="0px" y="0px" viewBox="0 0 100 100" enable-background="new 0 0 100 100" xml:space="preserve">
<path fill="#231F20" d="M49.4,22.8c-14.9,0-27,12.1-27,27c0,14.9,12.1,27,27,27s27-12.1,27-27C76.4,34.9,64.3,22.8,49.4,22.8z
	 M62,48.5l-5.6,4c-0.2,0.2-0.3,0.4-0.2,0.7l2.1,6.4c0.2,0.6,0.1,1.2-0.3,1.7c-0.4,0.5-1,0.8-1.6,0.8c-0.4,0-0.8-0.1-1.2-0.4l-5.6-4
	c-0.2-0.2-0.5-0.2-0.7,0l-5.6,4c-0.3,0.2-0.7,0.4-1.2,0.4c-0.6,0-1.2-0.3-1.6-0.8c-0.4-0.5-0.5-1.1-0.3-1.7l2.1-6.4
	c0.1-0.3,0-0.5-0.2-0.7l-5.6-4c-0.7-0.5-1-1.4-0.7-2.2c0.3-0.8,1-1.3,1.9-1.3h6.9c0.3,0,0.5-0.2,0.6-0.4l2.1-6.4
	c0.3-0.8,1-1.3,1.9-1.3s1.6,0.5,1.9,1.3l2.1,6.4c0.1,0.3,0.3,0.4,0.6,0.4h6.9c0.9,0,1.6,0.5,1.9,1.3C63,47.2,62.8,48,62,48.5z"/>
</svg>
