<?xml version="1.0" encoding="utf-8"?>
<!-- Generator: Adobe Illustrator 17.1.0, SVG Export Plug-In . SVG Version: 6.00 Build 0)  -->
<!DOCTYPE svg PUBLIC "-//W3C//DTD SVG 1.1//EN" "http://www.w3.org/Graphics/SVG/1.1/DTD/svg11.dtd" [
	<!ENTITY ns_flows "http://ns.adobe.com/Flows/1.0/">
	<!ENTITY ns_extend "http://ns.adobe.com/Extensibility/1.0/">
	<!ENTITY ns_ai "http://ns.adobe.com/AdobeIllustrator/10.0/">
	<!ENTITY ns_graphs "http://ns.adobe.com/Graphs/1.0/">
]>
<svg version="1.1" id="Layer_1" xmlns:x="&ns_extend;" xmlns:i="&ns_ai;" xmlns:graph="&ns_graphs;"
	 xmlns="http://www.w3.org/2000/svg" xmlns:xlink="http://www.w3.org/1999/xlink" xmlns:a="http://ns.adobe.com/AdobeSVGViewerExtensions/3.0/"
	 x="0px" y="0px" viewBox="0 0 100 100" enable-background="new 0 0 100 100" xml:space="preserve">
<g>
	<g>
		<path fill="#231F20" d="M44.2,63.3c3.5,0,6.9,0,10.4,0c0.1,0,0.3-0.1,0.4-0.1c0.3-0.2,0.3-0.4,0.3-0.7c0-5.6,0-11.1,0-16.7
			c0-5.5,0-11,0-16.6c0-0.1,0-0.2,0-0.3c0-0.4-0.4-0.7-0.7-0.7c-3.5,0-6.9,0-10.4,0c-0.3,0-0.5,0.1-0.6,0.4
			c-0.1,0.1-0.1,0.3-0.1,0.5c0,11.1,0,22.3,0,33.4c0,0.1,0,0.1,0,0.2C43.5,62.9,43.9,63.3,44.2,63.3z M47.7,55.9c-0.8,0-1.7,0-2.5,0
			c-0.1,0-0.1,0-0.2,0c0-1,0-1.9,0-2.9c0.1,0,0.1,0,0.2,0c0.8,0,1.7,0,2.5,0c0.2,0,0.2,0,0.2-0.2c0-0.3,0-0.7,0-1
			c0-0.2,0-0.2-0.2-0.2c-0.8,0-1.7,0-2.5,0c-0.1,0-0.1,0-0.2,0c0-1,0-1.9,0-2.9c0.1,0,0.1,0,0.2,0c0.8,0,1.7,0,2.5,0
			c0.2,0,0.2,0,0.2-0.2c0-0.4,0-0.7,0-1.1c0-0.2-0.1-0.2-0.2-0.2c-0.8,0-1.7,0-2.5,0c-0.1,0-0.1,0-0.2,0c0-1,0-1.9,0-2.9
			c0.1,0,0.1,0,0.2,0c0.8,0,1.7,0,2.5,0c0.3,0,0.3,0,0.3-0.3c0-0.3,0-0.6,0-0.9c0-0.3,0-0.3-0.3-0.3c-0.8,0-1.6,0-2.5,0
			c-0.1,0-0.1,0-0.2,0c0-1,0-1.9,0-2.9c0.1,0,0.1,0,0.2,0c0.8,0,1.7,0,2.5,0c0.2,0,0.2,0,0.2-0.2c0-0.3,0-0.7,0-1
			c0-0.2,0-0.2-0.2-0.2c-0.8,0-1.7,0-2.5,0c-0.1,0-0.1,0-0.2,0c0-1,0-1.9,0-2.9c0.1,0,0.1,0,0.2,0c0.8,0,1.7,0,2.5,0
			c0.2,0,0.2,0,0.2-0.2c0-0.3,0-0.7,0-1c0-0.2,0-0.2-0.2-0.2c-0.8,0-1.7,0-2.5,0c-0.1,0-0.1,0-0.2,0c0-0.1,0-0.1,0-0.2
			c0-1.3,0-2.7,0-4c0-0.2,0-0.2,0.2-0.2c2.8,0,5.6,0,8.4,0c0.2,0,0.2,0,0.2,0.2c0,10.6,0,21.2,0,31.8c0,0.2,0,0.2-0.2,0.2
			c-2.8,0-5.6,0-8.4,0c-0.2,0-0.2-0.1-0.2-0.2c0-1.3,0-2.7,0-4c0-0.1,0-0.1,0-0.2c0.1,0,0.1,0,0.2,0c0.8,0,1.7,0,2.5,0
			c0.2,0,0.2,0,0.2-0.2c0-0.3,0-0.7,0-1C47.9,56,47.9,55.9,47.7,55.9z M69.4,67.5l-4.8-13.3c-0.4-1.2-1.5-1.9-2.8-1.9h-2.9
			c-0.5,0-0.9,0.4-0.9,0.9c0,0.5,0.4,0.9,0.9,0.9h2.9c0.5,0,0.9,0.3,1.1,0.8l4.8,13.3c0.1,0.4,0.1,0.7-0.1,1
			c-0.2,0.3-0.6,0.5-0.9,0.5H32.1c-0.4,0-0.7-0.2-0.9-0.5c-0.2-0.3-0.3-0.7-0.1-1l4.8-13.3c0.2-0.4,0.6-0.8,1.1-0.8h2.9
			c0.5,0,0.9-0.4,0.9-0.9c0-0.5-0.4-0.9-0.9-0.9h-2.9c-1.2,0-2.4,0.8-2.8,1.9l-4.8,13.3c-0.3,0.9-0.2,1.9,0.4,2.7
			c0.5,0.8,1.4,1.2,2.4,1.2h34.4c1,0,1.9-0.5,2.4-1.2C69.5,69.4,69.7,68.4,69.4,67.5z"/>
	</g>
</g>
</svg>
