<?xml version="1.0" encoding="utf-8"?>
<!-- Generator: Adobe Illustrator 17.1.0, SVG Export Plug-In . SVG Version: 6.00 Build 0)  -->
<!DOCTYPE svg PUBLIC "-//W3C//DTD SVG 1.1//EN" "http://www.w3.org/Graphics/SVG/1.1/DTD/svg11.dtd" [
	<!ENTITY ns_flows "http://ns.adobe.com/Flows/1.0/">
	<!ENTITY ns_extend "http://ns.adobe.com/Extensibility/1.0/">
	<!ENTITY ns_ai "http://ns.adobe.com/AdobeIllustrator/10.0/">
	<!ENTITY ns_graphs "http://ns.adobe.com/Graphs/1.0/">
]>
<svg version="1.1" id="Layer_1" xmlns:x="&ns_extend;" xmlns:i="&ns_ai;" xmlns:graph="&ns_graphs;"
	 xmlns="http://www.w3.org/2000/svg" xmlns:xlink="http://www.w3.org/1999/xlink" xmlns:a="http://ns.adobe.com/AdobeSVGViewerExtensions/3.0/"
	 x="0px" y="0px" viewBox="0 0 100 100" enable-background="new 0 0 100 100" xml:space="preserve">
<g>
	<g>
		<path fill="#231F20" d="M49.3,59.1C49.3,59.1,49.3,59.1,49.3,59.1c0.3,0,0.5-0.1,0.7-0.3c0.4-0.4,9.7-9.9,9.7-16.1
			c0-5.6-4.6-10.2-10.4-10.2c-5.7,0-10.4,4.6-10.4,10.2c0,6.2,9.3,15.7,9.7,16.1C48.8,59,49.1,59.1,49.3,59.1z M49.3,34.4
			c4.6,0,8.4,3.7,8.4,8.3c0,4.6-6.3,11.8-8.4,14.1c-2.9-3.1-8.4-10-8.4-14.1C40.9,38.1,44.7,34.4,49.3,34.4z M54.8,42.9
			c0-3-2.5-5.4-5.5-5.4c-3,0-5.5,2.4-5.5,5.4c0,3,2.5,5.4,5.5,5.4C52.3,48.3,54.8,45.9,54.8,42.9z M45.8,42.9c0-1.9,1.6-3.5,3.5-3.5
			c2,0,3.5,1.6,3.5,3.5c0,1.9-1.6,3.5-3.5,3.5C47.4,46.4,45.8,44.9,45.8,42.9z M70.8,62.9l-5.1-14.4c-0.4-1.2-1.6-2.1-3-2.1h-1.9
			c-0.5,0-1,0.4-1,1c0,0.5,0.4,1,1,1h1.9c0.5,0,1,0.3,1.2,0.8L69,63.5c0.1,0.4,0.1,0.8-0.2,1.1c-0.2,0.3-0.6,0.5-1,0.5H30.9
			c-0.4,0-0.8-0.2-1-0.5c-0.2-0.3-0.3-0.7-0.2-1.1l5.1-14.4c0.2-0.5,0.6-0.8,1.2-0.8h1.8c0.5,0,1-0.4,1-1c0-0.5-0.4-1-1-1H36
			c-1.3,0-2.5,0.8-3,2.1l-5.1,14.4c-0.3,1-0.2,2,0.4,2.9c0.6,0.8,1.6,1.3,2.6,1.3h36.9c1,0,2-0.5,2.6-1.3
			C71,64.9,71.1,63.8,70.8,62.9z"/>
	</g>
</g>
</svg>
