<?xml version="1.0" encoding="utf-8"?>
<!-- Generator: Adobe Illustrator 17.1.0, SVG Export Plug-In . SVG Version: 6.00 Build 0)  -->
<!DOCTYPE svg PUBLIC "-//W3C//DTD SVG 1.1//EN" "http://www.w3.org/Graphics/SVG/1.1/DTD/svg11.dtd" [
	<!ENTITY ns_flows "http://ns.adobe.com/Flows/1.0/">
	<!ENTITY ns_extend "http://ns.adobe.com/Extensibility/1.0/">
	<!ENTITY ns_ai "http://ns.adobe.com/AdobeIllustrator/10.0/">
	<!ENTITY ns_graphs "http://ns.adobe.com/Graphs/1.0/">
]>
<svg version="1.1" id="Layer_1" xmlns:x="&ns_extend;" xmlns:i="&ns_ai;" xmlns:graph="&ns_graphs;"
	 xmlns="http://www.w3.org/2000/svg" xmlns:xlink="http://www.w3.org/1999/xlink" xmlns:a="http://ns.adobe.com/AdobeSVGViewerExtensions/3.0/"
	 x="0px" y="0px" viewBox="0 0 100 100" enable-background="new 0 0 100 100" xml:space="preserve">
<g>
	<g>
		<path fill="#231F20" d="M49.4,50.9c6.1,0,11.1-5.1,11.1-11.4c0-6.3-5-11.4-11.1-11.4c-6.1,0-11.1,5.1-11.1,11.4
			C38.2,45.8,43.2,50.9,49.4,50.9z M49.4,30.6c4.8,0,8.7,4,8.7,8.9c0,4.9-3.9,8.9-8.7,8.9c-4.8,0-8.7-4-8.7-8.9
			C40.6,34.6,44.6,30.6,49.4,30.6z M49.4,52.5c-9.5,0-17.3,7.9-17.3,17.6c0,0.7,0.5,1.2,1.2,1.2s1.2-0.5,1.2-1.2
			c0-8.4,6.7-15.2,14.9-15.2c8.2,0,14.9,6.8,14.9,15.2c0,0.7,0.5,1.2,1.2,1.2c0.7,0,1.2-0.5,1.2-1.2C66.7,60.4,58.9,52.5,49.4,52.5z
			"/>
	</g>
</g>
</svg>
