<?xml version="1.0" encoding="utf-8"?>
<!-- Generator: Adobe Illustrator 17.1.0, SVG Export Plug-In . SVG Version: 6.00 Build 0)  -->
<!DOCTYPE svg PUBLIC "-//W3C//DTD SVG 1.1//EN" "http://www.w3.org/Graphics/SVG/1.1/DTD/svg11.dtd" [
	<!ENTITY ns_flows "http://ns.adobe.com/Flows/1.0/">
	<!ENTITY ns_extend "http://ns.adobe.com/Extensibility/1.0/">
	<!ENTITY ns_ai "http://ns.adobe.com/AdobeIllustrator/10.0/">
	<!ENTITY ns_graphs "http://ns.adobe.com/Graphs/1.0/">
]>
<svg version="1.1" id="Layer_1" xmlns:x="&ns_extend;" xmlns:i="&ns_ai;" xmlns:graph="&ns_graphs;"
	 xmlns="http://www.w3.org/2000/svg" xmlns:xlink="http://www.w3.org/1999/xlink" xmlns:a="http://ns.adobe.com/AdobeSVGViewerExtensions/3.0/"
	 x="0px" y="0px" viewBox="0 0 100 100" enable-background="new 0 0 100 100" xml:space="preserve">
<g>
	<g>
		<path fill="#231F20" d="M69.4,48.5c-5.1,0-10.3,0-15.4,0c-0.3,0-0.4-0.1-0.5-0.3c-0.2-0.3-0.4-0.7-0.6-1c-0.7-0.9-1.6-1.4-2.7-1.6
			c-0.7-0.1-1.5,0-2.2,0.3c-1.1,0.4-1.9,1.2-2.4,2.2c-0.1,0.3-0.3,0.4-0.6,0.4c-5.1,0-10.2,0-15.3,0c-0.3,0-0.5,0.1-0.8,0.2
			c-0.5,0.2-0.8,0.7-0.9,1.2c-0.1,0.6,0.1,1.1,0.7,1.4c0.3,0.2,0.6,0.3,0.9,0.3c5.2,0,10.4,0,15.7,0c0.1,0.1,0.1,0.2,0.2,0.3
			c1,2,3.2,3.1,5.3,2.4c1.2-0.4,2.1-1.2,2.7-2.4c0.1-0.3,0.3-0.3,0.5-0.3c2.2,0,4.5,0,6.7,0c2.9,0,5.9,0,8.8,0
			c0.8,0,1.5-0.7,1.5-1.5C71,49.2,70.2,48.5,69.4,48.5z M29.5,38.5c0.6,0,1.3,0,1.9,0c0.3,0,0.4,0.1,0.5,0.3
			c0.2,0.3,0.3,0.6,0.5,0.9c0.7,0.8,1.5,1.4,2.5,1.6c1.3,0.3,2.4,0,3.5-0.7c0.7-0.5,1.2-1.2,1.6-2.1c0.2,0,0.4,0,0.5,0
			c9.6,0,19.2,0,28.8,0c0.8,0,1.3-0.5,1.5-1.2c0.2-0.5,0-1.3-0.7-1.7c-0.3-0.1-0.6-0.2-0.9-0.2c-9.6,0-19.2,0-28.8,0
			c-0.2,0-0.4,0-0.5-0.3c-0.3-0.9-1-1.5-1.7-2c-1.1-0.7-2.4-0.9-3.6-0.5c-1.2,0.4-2.2,1.2-2.7,2.5c-0.1,0.2-0.2,0.3-0.4,0.3
			c-0.7,0-1.3,0-2,0c-0.9,0-1.6,0.8-1.6,1.5C27.9,37.7,28.7,38.5,29.5,38.5z M69.8,60c-0.8-1-1.9-1.5-3.2-1.6c0,0,0-0.1,0-0.1
			c-0.1-0.1-0.3-0.2-0.4-0.2c-0.2,0-0.4,0.1-0.7,0.1c-1.4,0.3-2.3,1.1-2.9,2.3c-0.2,0.3-0.3,0.4-0.7,0.4c-10.8,0-21.6,0-32.4,0
			c-0.3,0-0.6,0.1-0.8,0.2c-0.7,0.3-1.1,1.3-0.8,2c0.3,0.6,0.8,0.9,1.5,0.9c10.8,0,21.7,0,32.5,0c0.3,0,0.4,0,0.6,0.3
			c0.7,1.5,1.8,2.3,3.4,2.6c1.2,0.2,2.4-0.1,3.4-1c1.3-1.1,1.8-2.6,1.4-4.3C70.5,61.1,70.2,60.5,69.8,60z"/>
	</g>
</g>
</svg>
