<?xml version="1.0" encoding="utf-8"?>
<!-- Generator: Adobe Illustrator 17.1.0, SVG Export Plug-In . SVG Version: 6.00 Build 0)  -->
<!DOCTYPE svg PUBLIC "-//W3C//DTD SVG 1.1//EN" "http://www.w3.org/Graphics/SVG/1.1/DTD/svg11.dtd" [
	<!ENTITY ns_flows "http://ns.adobe.com/Flows/1.0/">
	<!ENTITY ns_extend "http://ns.adobe.com/Extensibility/1.0/">
	<!ENTITY ns_ai "http://ns.adobe.com/AdobeIllustrator/10.0/">
	<!ENTITY ns_graphs "http://ns.adobe.com/Graphs/1.0/">
]>
<svg version="1.1" id="Layer_1" xmlns:x="&ns_extend;" xmlns:i="&ns_ai;" xmlns:graph="&ns_graphs;"
	 xmlns="http://www.w3.org/2000/svg" xmlns:xlink="http://www.w3.org/1999/xlink" xmlns:a="http://ns.adobe.com/AdobeSVGViewerExtensions/3.0/"
	 x="0px" y="0px" viewBox="0 0 100 100" enable-background="new 0 0 100 100" xml:space="preserve">
<g>
	<g>
		<path fill="#231F20" d="M68.3,43.2l-3.3-2.6v-9.4c0-1.3-1.1-2.4-2.4-2.4h-1.1c-1.3,0-2.4,1.1-2.4,2.4v4.9l-8.2-6.3
			c-0.5-0.4-1-0.5-1.6-0.5c-0.6,0-1.1,0.2-1.6,0.5L30.5,43c-0.4,0.3-0.5,1-0.2,1.4c0.2,0.3,0.5,0.4,0.8,0.4c0.2,0,0.4-0.1,0.6-0.2
			l1.7-1.3l0,24.3c0,1.7,1.4,3.1,3.2,3.1h14.3c0,0,0,0,0,0h8.8c0,0,0,0,0,0H62c1.7,0,3.2-1.4,3.2-3.1V43.3l1.9,1.5
			c0.2,0.1,0.4,0.2,0.6,0.2c0.3,0,0.6-0.1,0.8-0.4C68.8,44.2,68.7,43.6,68.3,43.2z M61.1,31.2c0-0.2,0.2-0.4,0.4-0.4h1.1
			c0.2,0,0.4,0.2,0.4,0.4v7.9l-0.7-0.6l-1.1-0.9V31.2z M58.7,68.7h-6.8L52,52.9l6.7,0.1V68.7z M63.1,67.5c0,0.6-0.5,1.1-1.1,1.1
			h-1.2V52.9c0-1.1-0.9-2.1-2.1-2.1H52c-1.1,0-2.1,0.9-2.1,2.1v15.7H36.6c-0.6,0-1.1-0.5-1.1-1.1l0-25.6c0-0.1,0-0.1,0-0.2
			l13.5-10.3c0.1-0.1,0.2-0.1,0.4-0.1c0.1,0,0.3,0,0.4,0.1l9.8,7.5c0,0,0,0.1,0.1,0.1l1.5,1.1l2.1,1.6V67.5z M47.2,59.1h-0.3v-6.2
			c0-1.1-0.9-2-2.1-2h-3.5c-1.1,0-2.1,0.9-2.1,2v6.2h-0.5c-0.6,0-1,0.4-1,1s0.5,1,1,1h1.5h5.6h1.3c0.6,0,1-0.4,1-1
			S47.8,59.1,47.2,59.1z M44.9,59.1h-3.6l0-6.3l3.5,0V59.1z"/>
	</g>
</g>
</svg>
