<?xml version="1.0" encoding="utf-8"?>
<!-- Generator: Adobe Illustrator 17.1.0, SVG Export Plug-In . SVG Version: 6.00 Build 0)  -->
<!DOCTYPE svg PUBLIC "-//W3C//DTD SVG 1.1//EN" "http://www.w3.org/Graphics/SVG/1.1/DTD/svg11.dtd" [
	<!ENTITY ns_flows "http://ns.adobe.com/Flows/1.0/">
	<!ENTITY ns_extend "http://ns.adobe.com/Extensibility/1.0/">
	<!ENTITY ns_ai "http://ns.adobe.com/AdobeIllustrator/10.0/">
	<!ENTITY ns_graphs "http://ns.adobe.com/Graphs/1.0/">
]>
<svg version="1.1" id="Layer_1" xmlns:x="&ns_extend;" xmlns:i="&ns_ai;" xmlns:graph="&ns_graphs;"
	 xmlns="http://www.w3.org/2000/svg" xmlns:xlink="http://www.w3.org/1999/xlink" xmlns:a="http://ns.adobe.com/AdobeSVGViewerExtensions/3.0/"
	 x="0px" y="0px" viewBox="0 0 100 100" enable-background="new 0 0 100 100" xml:space="preserve">
<path fill="#231F20" d="M60.8,71.4c-0.7,0-1.3-0.2-1.8-0.6L50,63.9c-0.3-0.3-0.8-0.3-1.2,0l-8.9,6.8c-0.6,0.4-1.2,0.6-1.8,0.6
	c-1,0-2-0.5-2.6-1.4c-0.6-0.8-0.7-1.9-0.4-2.9l3.4-11c0.1-0.4,0-0.9-0.4-1.2l-8.9-6.8c-1.1-0.9-1.6-2.3-1.1-3.7
	c0.4-1.4,1.6-2.3,3-2.3H42c0.4,0,0.8-0.3,1-0.7l3.4-11c0.4-1.4,1.6-2.3,3-2.3c1.4,0,2.6,0.9,3,2.3l3.4,11c0.1,0.4,0.5,0.7,1,0.7
	h11.1c1.4,0,2.6,0.9,3,2.3c0.4,1.4,0,2.8-1.1,3.7l-8.9,6.8c-0.4,0.3-0.5,0.7-0.4,1.2l3.4,11c0.3,1,0.2,2.1-0.4,2.9
	C62.7,70.8,61.8,71.4,60.8,71.4z M49.4,61.5c0.7,0,1.3,0.2,1.9,0.6l8.9,6.8c0.5,0.4,1.1,0.2,1.4-0.2c0.1-0.2,0.3-0.5,0.1-0.9
	l-3.4-11c-0.4-1.4,0-2.8,1.1-3.7l8.9-6.8c0.6-0.4,0.4-1,0.4-1.2c-0.1-0.2-0.3-0.7-1-0.7H56.8c-1.4,0-2.6-0.9-3-2.3l-3.4-11
	c-0.2-0.7-0.8-0.7-1-0.7s-0.8,0.1-1,0.7l-3.4,11c-0.4,1.4-1.6,2.3-3,2.3H30.9c-0.7,0-0.9,0.6-1,0.7c-0.1,0.2-0.2,0.8,0.4,1.2
	l8.9,6.8c1.1,0.8,1.6,2.3,1.1,3.7l-3.4,11c-0.1,0.4,0,0.7,0.1,0.9c0.3,0.5,1,0.6,1.4,0.2l8.9-6.8C48.1,61.7,48.7,61.5,49.4,61.5z"/>
</svg>
