<?xml version="1.0" encoding="utf-8"?>
<!-- Generator: Adobe Illustrator 17.1.0, SVG Export Plug-In . SVG Version: 6.00 Build 0)  -->
<!DOCTYPE svg PUBLIC "-//W3C//DTD SVG 1.1//EN" "http://www.w3.org/Graphics/SVG/1.1/DTD/svg11.dtd" [
	<!ENTITY ns_flows "http://ns.adobe.com/Flows/1.0/">
	<!ENTITY ns_extend "http://ns.adobe.com/Extensibility/1.0/">
	<!ENTITY ns_ai "http://ns.adobe.com/AdobeIllustrator/10.0/">
	<!ENTITY ns_graphs "http://ns.adobe.com/Graphs/1.0/">
]>
<svg version="1.1" id="Layer_1" xmlns:x="&ns_extend;" xmlns:i="&ns_ai;" xmlns:graph="&ns_graphs;"
	 xmlns="http://www.w3.org/2000/svg" xmlns:xlink="http://www.w3.org/1999/xlink" xmlns:a="http://ns.adobe.com/AdobeSVGViewerExtensions/3.0/"
	 x="0px" y="0px" viewBox="0 0 100 100" enable-background="new 0 0 100 100" xml:space="preserve">
<g>
	<g>
		<path fill="#231F20" d="M63.7,42.7c0-8-6.5-14.5-14.5-14.5c-8,0-14.5,6.5-14.5,14.5c0,8,6.5,14.5,14.5,14.5
			C57.1,57.2,63.7,50.7,63.7,42.7z M49.1,54.9c-6.8,0-12.3-5.5-12.3-12.2c0-6.7,5.5-12.2,12.3-12.2c6.8,0,12.3,5.5,12.3,12.2
			C61.4,49.4,55.9,54.9,49.1,54.9z M52.8,38.7L47,44.3l-1.6-1.6c-0.4-0.5-1.2-0.5-1.6,0c-0.5,0.4-0.5,1.2,0,1.6l2.4,2.5
			c0.2,0.2,0.5,0.3,0.8,0.4c0,0,0,0,0,0c0.3,0,0.6-0.1,0.8-0.3l6.7-6.4c0.5-0.4,0.5-1.2,0-1.6C54,38.2,53.3,38.2,52.8,38.7z
			 M46.1,58.9c-0.6-0.2-1.3,0-1.5,0.6l-3.4,8.3l-1.7-2.5c-0.3-0.4-0.7-0.6-1.2-0.5l-2.8,0.5l3.4-8.2c0.2-0.6,0-1.3-0.6-1.5
			c-0.6-0.2-1.3,0-1.5,0.6l-4.2,10.1c-0.2,0.4-0.1,0.8,0.2,1.2c0.3,0.3,0.7,0.5,1.1,0.4l4.2-0.7l2.5,3.6c0.2,0.3,0.6,0.5,1,0.5
			c0,0,0.1,0,0.1,0c0.4,0,0.8-0.3,0.9-0.7l4.2-10.3C46.9,59.8,46.6,59.1,46.1,58.9z M66.2,66.4L62,56.3c-0.2-0.6-0.9-0.9-1.5-0.6
			c-0.6,0.2-0.9,0.9-0.6,1.5l3.4,8.2l-2.8-0.5c-0.4-0.1-0.9,0.1-1.2,0.5l-1.7,2.5l-3.4-8.3c-0.2-0.6-0.9-0.9-1.5-0.6
			c-0.6,0.2-0.9,0.9-0.6,1.5l4.2,10.3c0.2,0.4,0.5,0.7,0.9,0.7c0,0,0.1,0,0.1,0c0.4,0,0.7-0.2,1-0.5l2.5-3.6l4.2,0.7
			c0.4,0.1,0.8-0.1,1.1-0.4C66.3,67.2,66.4,66.8,66.2,66.4z"/>
	</g>
</g>
</svg>
