<?xml version="1.0" encoding="utf-8"?>
<!-- Generator: Adobe Illustrator 17.1.0, SVG Export Plug-In . SVG Version: 6.00 Build 0)  -->
<!DOCTYPE svg PUBLIC "-//W3C//DTD SVG 1.1//EN" "http://www.w3.org/Graphics/SVG/1.1/DTD/svg11.dtd" [
	<!ENTITY ns_flows "http://ns.adobe.com/Flows/1.0/">
	<!ENTITY ns_extend "http://ns.adobe.com/Extensibility/1.0/">
	<!ENTITY ns_ai "http://ns.adobe.com/AdobeIllustrator/10.0/">
	<!ENTITY ns_graphs "http://ns.adobe.com/Graphs/1.0/">
]>
<svg version="1.1" id="Layer_1" xmlns:x="&ns_extend;" xmlns:i="&ns_ai;" xmlns:graph="&ns_graphs;"
	 xmlns="http://www.w3.org/2000/svg" xmlns:xlink="http://www.w3.org/1999/xlink" xmlns:a="http://ns.adobe.com/AdobeSVGViewerExtensions/3.0/"
	 x="0px" y="0px" viewBox="0 0 100 100" enable-background="new 0 0 100 100" xml:space="preserve">
<g>
	<g>
		<path fill="#231F20" d="M71,54.8c0-0.9-0.2-1.7-0.5-2.5c-0.6-1.3-1.6-2.3-2.8-2.9c-0.2-0.1-0.2-0.2-0.2-0.3c0-3.2,0-6.5,0-9.7h0
			v-6.5H68c0.5,0,0.9-0.4,0.9-0.9v-2.4c0-0.5-0.4-0.9-0.9-0.9h-4.9c-0.5,0-0.9,0.4-0.9,0.9v2.4c0,0.5,0.4,0.9,0.9,0.9h0.7v0.5
			c-0.7-0.3-1.4-0.5-2.2-0.5c-7.9,0-15.8,0-23.8,0c-0.5,0-1,0-1.6,0.1c-0.5,0.1-1,0.2-1.4,0.4v-0.5h0.7c0.5,0,0.9-0.4,0.9-0.9v-2.4
			c0-0.5-0.4-0.9-0.9-0.9h-4.9c-0.5,0-0.9,0.4-0.9,0.9v2.4c0,0.5,0.4,0.9,0.9,0.9h0.6v6.5h0c0,2.5,0,4.9,0,7.4c0,0.8,0,1.6,0,2.4
			c0,0.1-0.1,0.2-0.1,0.3c-0.9,0.4-1.7,1.1-2.3,1.9c-0.8,1-1.2,2.1-1.2,3.4c0,4.8,0,11.3,0,16.1c0,0.1,0,0.2,0,0.3l4.3,0
			c0-1,0-3.7,0-4.7c11.5,0,23,0,34.5,0c0,1,0,3.7,0,4.7l4.3,0c0-0.1,0-0.2,0-0.3C71,66,71,59.5,71,54.8z M63.6,31.3v-1.4h3.9v1.4
			H63.6z M66,32.7v2.2c-0.3-0.3-0.5-0.6-0.9-0.9v-1.4H66z M35.9,34.4c0.5-0.2,1-0.2,1.6-0.2c8.1,0,16.2,0,24.3,0
			c1.7,0,2.9,0.8,3.7,2.4c0.3,0.6,0.4,1.3,0.4,1.9c0,3.3,0,6.7,0,10c0,0.1,0,0.2,0,0.3c-11.1,0-22.1,0-33.1,0c0-0.1,0-0.2,0-0.3
			c0-3.3,0-6.7,0-10c0-1.3,0.4-2.4,1.4-3.2C34.7,34.9,35.2,34.6,35.9,34.4z M32.7,34.9v-2.2h0.9v1.4C33.3,34.3,33,34.6,32.7,34.9z
			 M31.2,31.3v-1.4h3.9v1.4H31.2z M69.5,68.9c0,0.1,0,0.2,0,0.3c-0.5,0-0.9,0-1.4,0c0-1.4,0-2.9,0-4.3c-12.5,0-25,0-37.4,0
			c0,1.4,0,2.9,0,4.3c-0.5,0-0.9,0-1.4,0c0-0.1,0-0.2,0-0.3c0-4.8,0-9.6,0-14.3c0-1.3,0.4-2.4,1.4-3.2c0.5-0.4,1.1-0.7,1.7-0.9
			c0.5-0.1,1-0.2,1.6-0.2c10.5,0,21,0,31.5,0c1.8,0,3.1,0.9,3.8,2.5c0.3,0.5,0.4,1.1,0.4,1.8C69.5,59.3,69.5,64.1,69.5,68.9z
			 M50.1,47.3c0.5,0,1,0,1.4,0c0-1,0-1.9,0-2.9c0-0.4,0.1-0.9,0.3-1.3c0.5-1.1,1.3-1.6,2.4-1.6c1.8,0,3.6,0,5.4,0
			c0.4,0,0.9,0,1.3,0.1c0.4,0,0.7,0.2,1,0.4c0.8,0.6,1.1,1.4,1.1,2.4c0,0.9,0,1.7,0,2.6c0,0.1,0,0.2,0,0.3c0.5,0,0.9,0,1.4,0
			c0-0.1,0-0.1,0-0.1c0-1,0-2,0-3c0-0.2,0-0.5-0.1-0.7c-0.2-0.7-0.5-1.3-1-1.9c-0.9-1-2-1.6-3.3-1.6c-1.9,0-3.8,0-5.7,0
			c-0.3,0-0.6,0-0.9,0.1c-0.7,0.2-1.3,0.5-1.8,0.9c-1.1,0.9-1.7,2.1-1.6,3.6c0,0.8,0,1.6,0,2.4C50.1,47.1,50.1,47.2,50.1,47.3z
			 M34.3,47.3c0.5,0,0.9,0,1.4,0c0-0.1,0-0.2,0-0.3c0-0.9,0-1.8,0-2.7c0-0.4,0.1-0.8,0.3-1.2c0.5-1.1,1.3-1.6,2.5-1.6
			c2,0,3.9,0,5.9,0c0.5,0,0.9,0.1,1.3,0.3c1,0.4,1.6,1.4,1.6,2.4c0,1,0,1.9,0,2.9c0,0.1,0,0.2,0,0.2c0.5,0,1,0,1.4,0
			c0-0.9,0-1.8,0-2.6c0-0.5,0-0.9-0.2-1.3c-0.2-0.6-0.4-1.1-0.8-1.6c-0.9-1.1-2.1-1.7-3.6-1.7c-1.8,0-3.6,0-5.4,0
			c-0.4,0-0.8,0.1-1.2,0.2c-0.6,0.1-1.1,0.4-1.6,0.8c-1.1,0.9-1.7,2.1-1.7,3.6c0,0.8,0,1.6,0,2.4C34.3,47.1,34.3,47.2,34.3,47.3z"/>
	</g>
</g>
</svg>
