<?xml version="1.0" encoding="utf-8"?>
<!-- Generator: Adobe Illustrator 17.1.0, SVG Export Plug-In . SVG Version: 6.00 Build 0)  -->
<!DOCTYPE svg PUBLIC "-//W3C//DTD SVG 1.1//EN" "http://www.w3.org/Graphics/SVG/1.1/DTD/svg11.dtd" [
	<!ENTITY ns_flows "http://ns.adobe.com/Flows/1.0/">
	<!ENTITY ns_extend "http://ns.adobe.com/Extensibility/1.0/">
	<!ENTITY ns_ai "http://ns.adobe.com/AdobeIllustrator/10.0/">
	<!ENTITY ns_graphs "http://ns.adobe.com/Graphs/1.0/">
]>
<svg version="1.1" id="Layer_1" xmlns:x="&ns_extend;" xmlns:i="&ns_ai;" xmlns:graph="&ns_graphs;"
	 xmlns="http://www.w3.org/2000/svg" xmlns:xlink="http://www.w3.org/1999/xlink" xmlns:a="http://ns.adobe.com/AdobeSVGViewerExtensions/3.0/"
	 x="0px" y="0px" viewBox="0 0 100 100" enable-background="new 0 0 100 100" xml:space="preserve">
<g>
	<g>
		<path fill="#231F20" d="M71,54.2c-0.1-0.4-0.4-0.7-0.7-0.7c-0.6,0-1.2,0-1.7,0c-1.4,0-2.9,0-4.3,0c-0.1,0-0.2,0-0.2-0.2
			c0-0.2,0-0.5,0-0.7c0-0.4-0.1-0.7-0.5-0.8c-0.2-0.1-0.4-0.1-0.6-0.1c-1,0-2,0-3,0c-1.3,0-2.6,0-3.9,0c-0.6,0-1,0.4-1,1
			c0,0.2,0,0.4,0,0.6c0,0.3,0,0.3-0.3,0.3c-7.1,0-14.2,0-21.3,0c-0.3,0-0.3,0-0.3-0.3c0-1.9,0-3.7,0-5.6c0-4,0-8,0-11.9
			c0-0.6,0.1-1.2,0.3-1.7c0.3-1,0.8-1.8,1.5-2.5c0.8-0.8,1.8-1.2,2.9-1.4c0.8-0.1,1.7-0.1,2.5,0c0.2,0,0.4,0.1,0.6,0.2
			c-0.1,0.1-0.1,0.1-0.2,0.1c-1.3,0.9-2.1,2.1-2.2,3.6c-0.1,0.6,0.3,1.1,0.9,1.1c0.3,0,0.5,0,0.8,0c2.2,0,4.3,0,6.5,0
			c0.5,0,0.9-0.4,0.9-0.8c0-0.3,0-0.7-0.1-1c-0.2-0.8-0.6-1.5-1.1-2.1c-0.7-0.8-1.5-1.3-2.5-1.5c-0.2,0-0.4-0.1-0.6-0.2
			c-0.5-0.2-1-0.5-1.5-0.8c-0.7-0.3-1.5-0.5-2.3-0.5c-0.7-0.1-1.4-0.1-2.1,0.1c-0.5,0.1-1,0.3-1.5,0.5c-1.2,0.5-2.2,1.4-3,2.4
			c-0.7,0.9-1.2,1.9-1.4,3c-0.1,0.5-0.1,1.1-0.1,1.6c0,5.7,0,11.5,0,17.2c0,0.3,0,0.3-0.3,0.4c-0.8,0-1.6,0-2.5,0
			c-0.4,0-0.7,0.4-0.7,0.8c0,0.5,0.3,0.8,0.7,0.9c0.2,0,0.5,0,0.7,0c0.3,0,0.3,0,0.3,0.3c0,1,0,2,0.3,3c0.1,0.6,0.3,1.2,0.5,1.7
			c0.3,1,0.8,1.9,1.4,2.7c1.1,1.6,2.5,2.9,4.3,3.8c0.6,0.3,1.3,0.6,1.9,0.8c-0.2,0.6-0.5,1.2-0.7,1.8c-0.1,0.3-0.3,0.6-0.4,0.9
			c-0.1,0.4,0.2,0.9,0.6,1c0.5,0.1,0.9-0.1,1.1-0.5c0.4-0.9,0.7-1.8,1.1-2.7c0.1-0.2,0.1-0.2,0.3-0.2c0.7,0,1.4,0.1,2.1,0.1
			c1.3,0,2.6,0,3.9,0c4.5,0,9,0.1,13.5-0.1c0.1,0,0.2,0.1,0.2,0.1c0.2,0.6,0.5,1.2,0.7,1.7c0.1,0.3,0.3,0.6,0.4,0.9
			c0.2,0.6,0.8,0.7,1.2,0.5c0.4-0.2,0.7-0.6,0.5-1.2c-0.3-0.8-0.6-1.6-1-2.4c-0.1-0.2,0-0.2,0.1-0.3c0.1,0,0.3-0.1,0.4-0.1
			c0.8-0.3,1.7-0.7,2.4-1.2c1.2-0.8,2.2-1.8,3.1-3c0.7-1,1.2-2,1.6-3.2c0.3-0.8,0.4-1.7,0.6-2.5c0.1-0.6,0.1-1.2,0.1-1.8
			c0-0.5,0-0.4,0.4-0.4c0.3,0,0.5,0,0.8-0.2C70.9,54.8,71,54.5,71,54.2z M43.3,31.4c1.1,0.1,2.4,1.2,2.3,1.9c-1.7,0-3.5,0-5.3,0
			C40.6,32.3,41.8,31.2,43.3,31.4z M56.7,53.7c0-0.2,0.1-0.3,0.3-0.3c1.7,0,3.3,0,5,0c0.3,0,0.3,0,0.3,0.3c0,1.1,0,2.1,0,3.2
			c0,0.1,0,0.1,0,0.2c-0.2,0-0.4,0-0.6,0c-1.5,0-3.1,0-4.6,0c-0.3,0-0.3,0-0.3-0.3c0-0.8,0-1.6,0-2.4C56.7,54.1,56.7,53.9,56.7,53.7
			z M56.9,58.9c0.8,0,1.7,0,2.5,0c0.8,0,1.7,0,2.5,0c0.2,0,0.3,0.1,0.3,0.3c0,0.5,0,0.9,0,1.4c0,0.2-0.1,0.2-0.2,0.2
			c-1.7,0-3.4,0-5.1,0c-0.2,0-0.2-0.1-0.2-0.2c0-0.5,0-0.9,0-1.4C56.7,58.9,56.7,58.9,56.9,58.9z M67.6,57.6c-0.4,2.7-1.5,5-3.7,6.7
			C63,65,62,65.5,61,65.8c-0.6,0.2-1.3,0.4-2,0.4c-1.1,0.1-2.2,0.1-3.3,0.1c-2.1,0-4.2,0-6.2,0c0,0,0,0,0,0c-2.9,0-5.8,0-8.8,0
			c-0.5,0-1.1-0.1-1.6-0.2c-1.2-0.2-2.3-0.6-3.3-1.3c-1.6-1-2.7-2.3-3.5-4c-0.3-0.7-0.6-1.4-0.7-2.1c-0.3-1.1-0.3-2.2-0.3-3.4
			c0-0.1,0-0.2,0.2-0.2c0.2,0,0.4,0,0.6,0c0.2,0,0.5,0,0.7,0c4.4,0,8.8,0,13.2,0c2.9,0,5.8,0,8.7,0c0.3,0,0.3,0,0.3,0.3
			c0,0.7,0,1.3,0,2c0,1.3,0,2.7,0,4c0,0.7,0.5,1,1,1c2.3,0,4.7,0,7,0c0.6,0,1-0.4,1-1c0-2,0-4,0-6c0-0.3,0-0.3,0.3-0.3
			c1,0,2.1,0,3.1,0c0.3,0,0.3,0,0.3,0.3C67.6,56.2,67.7,56.9,67.6,57.6z M46.3,39c-0.3,0.1-0.7,0.4-0.7,0.8c0,0.1,0,0.1,0,0.2
			c0.1,0.4,0.2,0.8,0.3,1.2c0.1,0.4,0.6,0.7,1,0.6c0.5-0.1,0.8-0.6,0.7-1.1c-0.1-0.4-0.2-0.7-0.3-1.1C47.2,39.1,46.9,38.9,46.3,39z
			 M39,39.4c-0.2,0.4-0.3,0.9-0.4,1.3c-0.1,0.5,0.3,1,1,1c0.2,0,0.4-0.1,0.6-0.4c0.1-0.2,0.2-0.3,0.2-0.5c0.1-0.3,0.2-0.7,0.2-1
			c0.1-0.5-0.2-0.8-0.6-0.9C39.6,38.9,39.1,39.1,39,39.4z M42.3,40.4c0,0.3,0,0.6,0.1,0.8c0.1,0.4,0.5,0.5,1,0.5
			c0.3,0,0.6-0.3,0.7-0.7c0-0.5,0.1-1,0-1.5c0-0.5-0.5-0.7-1-0.7c-0.4,0-0.7,0.4-0.7,0.8c0,0.2,0,0.4,0,0.6c0,0,0,0,0,0
			C42.3,40.4,42.3,40.4,42.3,40.4z M36.7,46.1c-0.1,0.2-0.1,0.5-0.2,0.7c-0.2,0.4,0.1,1,0.6,1.1c0.4,0.1,0.9-0.1,1-0.6
			c0.1-0.2,0.1-0.5,0.2-0.7c0.2-0.5-0.4-1.2-0.8-1.1C37.2,45.6,36.8,45.8,36.7,46.1z M49,48c0.4-0.1,0.8-0.4,0.7-0.9
			c0-0.3-0.1-0.5-0.2-0.8c-0.1-0.5-0.5-0.7-1-0.7c-0.4,0.1-0.7,0.4-0.7,1c0,0.2,0.1,0.5,0.2,0.8C48.2,47.8,48.7,48.1,49,48z M43,48
			c0.3,0.1,0.8-0.1,0.9-0.4c0.2-0.4,0.2-0.8,0.1-1.3c-0.1-0.3-0.4-0.6-0.7-0.7c-0.5-0.1-0.8,0.1-1,0.5c-0.1,0.2-0.1,0.5-0.1,0.7
			c0,0,0,0,0,0c0,0.1,0,0.2,0,0.4C42.2,47.5,42.5,47.8,43,48z"/>
	</g>
</g>
</svg>
