<?xml version="1.0" encoding="utf-8"?>
<!-- Generator: Adobe Illustrator 17.1.0, SVG Export Plug-In . SVG Version: 6.00 Build 0)  -->
<!DOCTYPE svg PUBLIC "-//W3C//DTD SVG 1.1//EN" "http://www.w3.org/Graphics/SVG/1.1/DTD/svg11.dtd" [
	<!ENTITY ns_flows "http://ns.adobe.com/Flows/1.0/">
	<!ENTITY ns_extend "http://ns.adobe.com/Extensibility/1.0/">
	<!ENTITY ns_ai "http://ns.adobe.com/AdobeIllustrator/10.0/">
	<!ENTITY ns_graphs "http://ns.adobe.com/Graphs/1.0/">
]>
<svg version="1.1" id="Layer_1" xmlns:x="&ns_extend;" xmlns:i="&ns_ai;" xmlns:graph="&ns_graphs;"
	 xmlns="http://www.w3.org/2000/svg" xmlns:xlink="http://www.w3.org/1999/xlink" xmlns:a="http://ns.adobe.com/AdobeSVGViewerExtensions/3.0/"
	 x="0px" y="0px" viewBox="0 0 100 100" enable-background="new 0 0 100 100" xml:space="preserve">
<g>
	<path fill="#231F20" d="M38.3,59.9c0,0.5,0.5,0.9,1,0.9l0.1,0c0.3,0,0.5-0.1,0.7-0.4c0.2-0.2,0.3-0.5,0.2-0.7
		c-0.3-4,2.6-9,7.7-13.1c4-3.2,10.4-6.6,16.7-6.6c0.6,0,1.2,0,1.8,0.1c0.2,0,0.4,0.2,0.4,0.3c0.1,0.2,0,0.4-0.1,0.5l-8.1,8
		c-0.2,0.2-0.3,0.4-0.3,0.7c0,0.3,0.1,0.5,0.3,0.7c0.4,0.4,1,0.4,1.4,0l10-9.9c0.2-0.2,0.3-0.4,0.3-0.7c0,0,0-0.1,0-0.1
		c0-0.3-0.2-0.6-0.5-0.8c0,0-0.1,0-0.1-0.1L60.2,29c-0.4-0.4-1-0.4-1.4,0c-0.2,0.2-0.3,0.4-0.3,0.7c0,0.3,0.1,0.5,0.3,0.7l6.7,6.8
		c0.1,0.1,0.2,0.4,0.1,0.5s-0.3,0.3-0.5,0.3l-0.4,0c-6.7,0-13.7,3.6-17.9,7C41.1,49.6,37.9,55.2,38.3,59.9z"/>
	<path fill="#231F20" d="M39.4,38.7h-8.1c-1.7,0-3,1.3-3,3v26c0,1.7,1.3,3,3,3h36c1.7,0,3-1.3,3-3v-13c0-0.6-0.5-1-1-1
		c-0.6,0-1,0.4-1,1v13c0,0.6-0.4,1-1,1h-36c-0.6,0-1-0.4-1-1v-26c0-0.6,0.4-1,1-1h8.1c0.6,0,1-0.4,1-1S39.9,38.7,39.4,38.7z"/>
</g>
</svg>
